<?xml version="1.0" encoding="utf-8"?>
<!-- Generator: Adobe Illustrator 22.1.0, SVG Export Plug-In . SVG Version: 6.00 Build 0)  -->
<svg version="1.1" id="Layer_1" xmlns="http://www.w3.org/2000/svg" xmlns:xlink="http://www.w3.org/1999/xlink" x="0px" y="0px"
	 viewBox="0 0 1096.1 194.7" style="enable-background:new 0 0 1096.1 194.7;" xml:space="preserve">
<style type="text/css">
	.st0{enable-background:new    ;}
	.st1{fill:#DE000A;}
</style>
<g>
	<g class="st0">
		<path class="st1" d="M63.4,51.2c0,6.5-1.5,11.7-4.4,15.7c-3,3.9-6.9,5.9-12,5.9c-4.3,0-7.7-1.5-10.4-4.5v20H25.3V29.7h10.5
			l0.4,4.1c2.7-3.3,6.3-4.9,10.7-4.9c5.2,0,9.3,1.9,12.1,5.8c2.9,3.9,4.3,9.2,4.3,16V51.2z M52.1,50.4c0-4-0.7-7-2.1-9.1
			c-1.4-2.1-3.4-3.2-6.1-3.2c-3.5,0-6,1.4-7.3,4.1v17.4c1.4,2.8,3.8,4.2,7.4,4.2C49.4,63.7,52.1,59.2,52.1,50.4z"/>
	</g>
	<g class="st0">
		<path class="st1" d="M94.2,40.3c-1.5-0.2-2.9-0.3-4.1-0.3c-4.3,0-7.1,1.4-8.4,4.3V72H70.4V29.7h10.7l0.3,5
			c2.3-3.9,5.4-5.8,9.4-5.8c1.2,0,2.4,0.2,3.5,0.5L94.2,40.3z"/>
	</g>
	<g class="st0">
		<path class="st1" d="M97.9,50.4c0-4.2,0.8-7.9,2.4-11.2c1.6-3.3,3.9-5.8,7-7.6c3-1.8,6.6-2.7,10.6-2.7c5.7,0,10.4,1.7,14,5.2
			c3.6,3.5,5.6,8.2,6,14.2l0.1,2.9c0,6.5-1.8,11.7-5.4,15.6c-3.6,3.9-8.5,5.9-14.6,5.9s-11-2-14.6-5.9s-5.4-9.2-5.4-16V50.4z
			 M109.1,51.2c0,4,0.8,7.1,2.3,9.2c1.5,2.1,3.7,3.2,6.5,3.2c2.7,0,4.9-1.1,6.4-3.2c1.5-2.1,2.3-5.5,2.3-10.1c0-3.9-0.8-7-2.3-9.2
			c-1.5-2.2-3.7-3.3-6.5-3.3c-2.8,0-4.9,1.1-6.4,3.2C109.9,43.4,109.1,46.7,109.1,51.2z"/>
	</g>
	<g class="st0">
		<path class="st1" d="M148,72V38h-6.3v-8.3h6.3v-3.6c0-4.7,1.4-8.4,4.1-11.1c2.7-2.6,6.5-3.9,11.4-3.9c1.6,0,3.5,0.3,5.7,0.8
			l-0.1,8.7c-0.9-0.2-2.1-0.4-3.4-0.4c-4.2,0-6.4,2-6.4,6v3.4h8.4V38h-8.4v34H148z"/>
		<path class="st1" d="M192.1,72.8c-6.2,0-11.2-1.9-15.1-5.7c-3.9-3.8-5.8-8.9-5.8-15.2v-1.1c0-4.3,0.8-8.1,2.5-11.4
			c1.6-3.4,4-5.9,7-7.7c3-1.8,6.4-2.7,10.3-2.7c5.8,0,10.3,1.8,13.7,5.5s5,8.8,5,15.5v4.6h-26.9c0.4,2.8,1.5,5,3.3,6.7
			c1.8,1.7,4.2,2.5,7,2.5c4.3,0,7.7-1.6,10.2-4.7l5.5,6.2c-1.7,2.4-4,4.3-6.9,5.6C198.8,72.1,195.6,72.8,192.1,72.8z M190.8,38
			c-2.2,0-4.1,0.8-5.4,2.3c-1.4,1.5-2.3,3.7-2.7,6.5h15.7v-0.9c-0.1-2.5-0.7-4.5-2-5.8C195.1,38.7,193.2,38,190.8,38z"/>
		<path class="st1" d="M238.8,60.3c0-1.4-0.7-2.5-2.1-3.3c-1.4-0.8-3.6-1.5-6.6-2.1c-10.1-2.1-15.1-6.4-15.1-12.8
			c0-3.8,1.6-6.9,4.7-9.4c3.1-2.5,7.2-3.8,12.2-3.8c5.4,0,9.7,1.3,12.9,3.8c3.2,2.5,4.8,5.8,4.8,9.9h-11.3c0-1.6-0.5-3-1.6-4
			c-1-1.1-2.7-1.6-4.9-1.6c-1.9,0-3.4,0.4-4.4,1.3c-1,0.9-1.6,2-1.6,3.3c0,1.3,0.6,2.3,1.8,3c1.2,0.8,3.2,1.4,6,2
			c2.8,0.6,5.2,1.2,7.1,1.9c6,2.2,8.9,6,8.9,11.4c0,3.9-1.7,7-5,9.4c-3.3,2.4-7.6,3.6-12.8,3.6c-3.5,0-6.7-0.6-9.4-1.9
			c-2.7-1.3-4.9-3-6.5-5.2c-1.6-2.2-2.3-4.6-2.3-7.1h10.7c0.1,2,0.8,3.5,2.2,4.6c1.4,1.1,3.2,1.6,5.5,1.6c2.2,0,3.8-0.4,4.9-1.2
			C238.2,62.7,238.8,61.6,238.8,60.3z"/>
		<path class="st1" d="M279.9,60.3c0-1.4-0.7-2.5-2.1-3.3c-1.4-0.8-3.6-1.5-6.6-2.1c-10.1-2.1-15.1-6.4-15.1-12.8
			c0-3.8,1.6-6.9,4.7-9.4c3.1-2.5,7.2-3.8,12.2-3.8c5.4,0,9.7,1.3,12.9,3.8c3.2,2.5,4.8,5.8,4.8,9.9h-11.3c0-1.6-0.5-3-1.6-4
			c-1-1.1-2.7-1.6-4.9-1.6c-1.9,0-3.4,0.4-4.4,1.3c-1,0.9-1.6,2-1.6,3.3c0,1.3,0.6,2.3,1.8,3c1.2,0.8,3.2,1.4,6,2
			c2.8,0.6,5.2,1.2,7.1,1.9c6,2.2,8.9,6,8.9,11.4c0,3.9-1.7,7-5,9.4c-3.3,2.4-7.6,3.6-12.8,3.6c-3.5,0-6.7-0.6-9.4-1.9
			c-2.7-1.3-4.9-3-6.5-5.2c-1.6-2.2-2.3-4.6-2.3-7.1h10.7c0.1,2,0.8,3.5,2.2,4.6c1.4,1.1,3.2,1.6,5.5,1.6c2.2,0,3.8-0.4,4.9-1.2
			C279.4,62.7,279.9,61.6,279.9,60.3z"/>
	</g>
	<g class="st0">
		<path class="st1" d="M299,18.7c0-1.7,0.6-3.1,1.7-4.2c1.1-1.1,2.7-1.6,4.6-1.6c1.9,0,3.5,0.5,4.6,1.6c1.1,1.1,1.7,2.5,1.7,4.2
			c0,1.7-0.6,3.1-1.7,4.2c-1.2,1.1-2.7,1.6-4.6,1.6c-1.9,0-3.4-0.5-4.6-1.6C299.6,21.8,299,20.4,299,18.7z M311,72h-11.3V29.7H311
			V72z"/>
		<path class="st1" d="M318.6,50.4c0-4.2,0.8-7.9,2.4-11.2c1.6-3.3,3.9-5.8,7-7.6c3-1.8,6.6-2.7,10.6-2.7c5.7,0,10.4,1.7,14,5.2
			c3.6,3.5,5.6,8.2,6,14.2l0.1,2.9c0,6.5-1.8,11.7-5.4,15.6c-3.6,3.9-8.5,5.9-14.6,5.9s-11-2-14.6-5.9s-5.4-9.2-5.4-16V50.4z
			 M329.9,51.2c0,4,0.8,7.1,2.3,9.2c1.5,2.1,3.7,3.2,6.5,3.2c2.7,0,4.9-1.1,6.4-3.2c1.5-2.1,2.3-5.5,2.3-10.1c0-3.9-0.8-7-2.3-9.2
			c-1.5-2.2-3.7-3.3-6.5-3.3c-2.8,0-4.9,1.1-6.4,3.2C330.6,43.4,329.9,46.7,329.9,51.2z"/>
		<path class="st1" d="M375.9,29.7l0.4,4.9c3-3.8,7.1-5.7,12.1-5.7c4.5,0,7.8,1.3,10,4c2.2,2.6,3.3,6.6,3.4,11.8V72h-11.3V44.9
			c0-2.4-0.5-4.2-1.6-5.2c-1-1.1-2.8-1.6-5.2-1.6c-3.2,0-5.6,1.4-7.1,4.1V72h-11.3V29.7H375.9z"/>
	</g>
	<g class="st0">
		<path class="st1" d="M435.1,72c-0.5-1-0.9-2.3-1.1-3.8c-2.7,3.1-6.3,4.6-10.7,4.6c-4.1,0-7.6-1.2-10.3-3.6
			c-2.7-2.4-4.1-5.4-4.1-9.1c0-4.5,1.7-7.9,5-10.3s8.1-3.6,14.4-3.6h5.2v-2.4c0-2-0.5-3.5-1.5-4.7c-1-1.2-2.6-1.8-4.7-1.8
			c-1.9,0-3.4,0.5-4.5,1.4c-1.1,0.9-1.6,2.2-1.6,3.8h-11.3c0-2.5,0.8-4.7,2.3-6.8c1.5-2.1,3.6-3.7,6.4-4.9c2.8-1.2,5.9-1.8,9.3-1.8
			c5.2,0,9.3,1.3,12.4,3.9c3.1,2.6,4.6,6.3,4.6,11.1v18.4c0,4,0.6,7.1,1.7,9.1V72H435.1z M425.8,64.1c1.7,0,3.2-0.4,4.6-1.1
			s2.4-1.7,3.1-3v-7.3h-4.2c-5.7,0-8.7,2-9,5.9l0,0.7c0,1.4,0.5,2.6,1.5,3.5C422.7,63.7,424,64.1,425.8,64.1z"/>
	</g>
	<g class="st0">
		<path class="st1" d="M465.4,72h-11.3V11.9h11.3V72z"/>
	</g>
	<g class="st0">
		<path class="st1" d="M514.6,72.8c-6.2,0-11.2-1.9-15.1-5.7c-3.9-3.8-5.8-8.9-5.8-15.2v-1.1c0-4.3,0.8-8.1,2.5-11.4
			c1.6-3.4,4-5.9,7-7.7c3-1.8,6.4-2.7,10.3-2.7c5.8,0,10.3,1.8,13.7,5.5s5,8.8,5,15.5v4.6h-26.9c0.4,2.8,1.5,5,3.3,6.7
			c1.8,1.7,4.2,2.5,7,2.5c4.3,0,7.7-1.6,10.2-4.7l5.5,6.2c-1.7,2.4-4,4.3-6.9,5.6C521.3,72.1,518.1,72.8,514.6,72.8z M513.3,38
			c-2.2,0-4.1,0.8-5.4,2.3c-1.4,1.5-2.3,3.7-2.7,6.5h15.7v-0.9c-0.1-2.5-0.7-4.5-2-5.8C517.5,38.7,515.7,38,513.3,38z"/>
	</g>
	<g class="st0">
		<path class="st1" d="M548.7,29.7l0.4,4.9c3-3.8,7.1-5.7,12.1-5.7c4.5,0,7.8,1.3,10,4c2.2,2.6,3.3,6.6,3.4,11.8V72h-11.3V44.9
			c0-2.4-0.5-4.2-1.6-5.2c-1-1.1-2.8-1.6-5.2-1.6c-3.2,0-5.6,1.4-7.1,4.1V72h-11.3V29.7H548.7z"/>
		<path class="st1" d="M581.5,50.5c0-6.5,1.5-11.7,4.6-15.7c3.1-4,7.2-5.9,12.5-5.9c4.6,0,8.2,1.6,10.8,4.8l0.5-4h10.2v40.9
			c0,3.7-0.8,6.9-2.5,9.7c-1.7,2.7-4,4.8-7.1,6.3c-3,1.4-6.6,2.2-10.7,2.2c-3.1,0-6.1-0.6-9.1-1.9c-2.9-1.2-5.2-2.8-6.7-4.8l5-6.9
			c2.8,3.2,6.2,4.7,10.2,4.7c3,0,5.3-0.8,7-2.4c1.7-1.6,2.5-3.9,2.5-6.8v-2.3c-2.6,2.9-6,4.4-10.3,4.4c-5.1,0-9.2-2-12.3-6
			c-3.1-4-4.7-9.3-4.7-15.8V50.5z M592.8,51.3c0,3.9,0.8,6.9,2.3,9.1c1.5,2.2,3.6,3.3,6.3,3.3c3.4,0,5.9-1.3,7.4-3.9V41.9
			c-1.5-2.6-3.9-3.9-7.3-3.9c-2.7,0-4.8,1.1-6.4,3.3C593.5,43.6,592.8,46.9,592.8,51.3z"/>
		<path class="st1" d="M628.7,18.7c0-1.7,0.6-3.1,1.7-4.2c1.1-1.1,2.7-1.6,4.6-1.6c1.9,0,3.5,0.5,4.6,1.6c1.1,1.1,1.7,2.5,1.7,4.2
			c0,1.7-0.6,3.1-1.7,4.2c-1.2,1.1-2.7,1.6-4.6,1.6c-1.9,0-3.4-0.5-4.6-1.6C629.3,21.8,628.7,20.4,628.7,18.7z M640.7,72h-11.3V29.7
			h11.3V72z"/>
		<path class="st1" d="M660.4,29.7l0.4,4.9c3-3.8,7.1-5.7,12.1-5.7c4.5,0,7.8,1.3,10,4c2.2,2.6,3.3,6.6,3.4,11.8V72H675V44.9
			c0-2.4-0.5-4.2-1.6-5.2c-1-1.1-2.8-1.6-5.2-1.6c-3.2,0-5.6,1.4-7.1,4.1V72h-11.3V29.7H660.4z"/>
	</g>
	<g class="st0">
		<path class="st1" d="M714.6,72.8c-6.2,0-11.2-1.9-15.1-5.7c-3.9-3.8-5.8-8.9-5.8-15.2v-1.1c0-4.3,0.8-8.1,2.5-11.4
			c1.6-3.4,4-5.9,7-7.7c3-1.8,6.4-2.7,10.3-2.7c5.8,0,10.3,1.8,13.7,5.5s5,8.8,5,15.5v4.6H705c0.4,2.8,1.5,5,3.3,6.7
			c1.8,1.7,4.2,2.5,7,2.5c4.3,0,7.7-1.6,10.2-4.7l5.5,6.2c-1.7,2.4-4,4.3-6.9,5.6C721.3,72.1,718.1,72.8,714.6,72.8z M713.3,38
			c-2.2,0-4.1,0.8-5.4,2.3c-1.4,1.5-2.3,3.7-2.7,6.5h15.7v-0.9c-0.1-2.5-0.7-4.5-2-5.8C717.5,38.7,715.7,38,713.3,38z"/>
		<path class="st1" d="M757.8,72.8c-6.2,0-11.2-1.9-15.1-5.7c-3.9-3.8-5.8-8.9-5.8-15.2v-1.1c0-4.3,0.8-8.1,2.5-11.4
			c1.6-3.4,4-5.9,7-7.7c3-1.8,6.4-2.7,10.3-2.7c5.8,0,10.3,1.8,13.7,5.5s5,8.8,5,15.5v4.6h-26.9c0.4,2.8,1.5,5,3.3,6.7
			c1.8,1.7,4.2,2.5,7,2.5c4.3,0,7.7-1.6,10.2-4.7l5.5,6.2c-1.7,2.4-4,4.3-6.9,5.6C764.5,72.1,761.3,72.8,757.8,72.8z M756.5,38
			c-2.2,0-4.1,0.8-5.4,2.3c-1.4,1.5-2.3,3.7-2.7,6.5h15.7v-0.9c-0.1-2.5-0.7-4.5-2-5.8C760.8,38.7,758.9,38,756.5,38z"/>
		<path class="st1" d="M805.3,40.3c-1.5-0.2-2.9-0.3-4.1-0.3c-4.3,0-7.1,1.4-8.4,4.3V72h-11.3V29.7h10.7l0.3,5
			c2.3-3.9,5.4-5.8,9.4-5.8c1.2,0,2.4,0.2,3.5,0.5L805.3,40.3z"/>
		<path class="st1" d="M833.7,60.3c0-1.4-0.7-2.5-2.1-3.3c-1.4-0.8-3.6-1.5-6.6-2.1C815,52.8,810,48.5,810,42.1
			c0-3.8,1.6-6.9,4.7-9.4c3.1-2.5,7.2-3.8,12.2-3.8c5.4,0,9.7,1.3,12.9,3.8c3.2,2.5,4.8,5.8,4.8,9.9h-11.3c0-1.6-0.5-3-1.6-4
			c-1-1.1-2.7-1.6-4.9-1.6c-1.9,0-3.4,0.4-4.4,1.3c-1,0.9-1.6,2-1.6,3.3c0,1.3,0.6,2.3,1.8,3c1.2,0.8,3.2,1.4,6,2
			c2.8,0.6,5.2,1.2,7.1,1.9c6,2.2,8.9,6,8.9,11.4c0,3.9-1.7,7-5,9.4c-3.3,2.4-7.6,3.6-12.8,3.6c-3.5,0-6.7-0.6-9.4-1.9
			c-2.7-1.3-4.9-3-6.5-5.2c-1.6-2.2-2.3-4.6-2.3-7.1h10.7c0.1,2,0.8,3.5,2.2,4.6c1.4,1.1,3.2,1.6,5.5,1.6c2.2,0,3.8-0.4,4.9-1.2
			C833.1,62.7,833.7,61.6,833.7,60.3z"/>
	</g>
	<g class="st0">
		<path class="st1" d="M910,51.2c0,6.8-1.4,12.1-4.3,15.9c-2.9,3.8-6.9,5.7-12.1,5.7c-4.6,0-8.2-1.8-11-5.3l-0.5,4.5h-10.2V11.9
			h11.3v21.6c2.6-3.1,6-4.6,10.3-4.6c5.2,0,9.2,1.9,12.1,5.7c2.9,3.8,4.4,9.1,4.4,16V51.2z M898.7,50.4c0-4.3-0.7-7.4-2-9.4
			c-1.4-2-3.4-3-6.1-3c-3.6,0-6.1,1.5-7.4,4.4v16.8c1.4,3,3.9,4.5,7.5,4.5c3.6,0,6-1.8,7.2-5.4C898.4,56.5,898.7,53.9,898.7,50.4z"
			/>
		<path class="st1" d="M915.2,50.4c0-4.2,0.8-7.9,2.4-11.2c1.6-3.3,3.9-5.8,7-7.6c3-1.8,6.6-2.7,10.6-2.7c5.7,0,10.4,1.7,14,5.2
			c3.6,3.5,5.6,8.2,6,14.2l0.1,2.9c0,6.5-1.8,11.7-5.4,15.6c-3.6,3.9-8.5,5.9-14.6,5.9s-11-2-14.6-5.9s-5.4-9.2-5.4-16V50.4z
			 M926.5,51.2c0,4,0.8,7.1,2.3,9.2c1.5,2.1,3.7,3.2,6.5,3.2c2.7,0,4.9-1.1,6.4-3.2c1.5-2.1,2.3-5.5,2.3-10.1c0-3.9-0.8-7-2.3-9.2
			c-1.5-2.2-3.7-3.3-6.5-3.3c-2.8,0-4.9,1.1-6.4,3.2C927.2,43.4,926.5,46.7,926.5,51.2z"/>
	</g>
	<g class="st0">
		<path class="st1" d="M986.8,72c-0.5-1-0.9-2.3-1.1-3.8c-2.7,3.1-6.3,4.6-10.7,4.6c-4.1,0-7.6-1.2-10.3-3.6
			c-2.7-2.4-4.1-5.4-4.1-9.1c0-4.5,1.7-7.9,5-10.3s8.1-3.6,14.4-3.6h5.2v-2.4c0-2-0.5-3.5-1.5-4.7c-1-1.2-2.6-1.8-4.7-1.8
			c-1.9,0-3.4,0.5-4.5,1.4c-1.1,0.9-1.6,2.2-1.6,3.8h-11.3c0-2.5,0.8-4.7,2.3-6.8c1.5-2.1,3.6-3.7,6.4-4.9c2.8-1.2,5.9-1.8,9.3-1.8
			c5.2,0,9.3,1.3,12.4,3.9c3.1,2.6,4.6,6.3,4.6,11.1v18.4c0,4,0.6,7.1,1.7,9.1V72H986.8z M977.5,64.1c1.7,0,3.2-0.4,4.6-1.1
			s2.4-1.7,3.1-3v-7.3H981c-5.7,0-8.7,2-9,5.9l0,0.7c0,1.4,0.5,2.6,1.5,3.5C974.4,63.7,975.7,64.1,977.5,64.1z"/>
		<path class="st1" d="M1029,40.3c-1.5-0.2-2.9-0.3-4.1-0.3c-4.3,0-7.1,1.4-8.4,4.3V72h-11.3V29.7h10.7l0.3,5
			c2.3-3.9,5.4-5.8,9.4-5.8c1.2,0,2.4,0.2,3.5,0.5L1029,40.3z"/>
	</g>
	<g class="st0">
		<path class="st1" d="M1032.7,50.5c0-6.6,1.5-11.9,4.4-15.8c3-3.9,7-5.9,12.1-5.9c4.1,0,7.5,1.5,10.2,4.6V11.9h11.3V72h-10.2
			l-0.5-4.5c-2.8,3.5-6.4,5.3-10.9,5.3c-5,0-9-2-12-5.9C1034.2,63,1032.7,57.5,1032.7,50.5z M1043.9,51.3c0,4,0.7,7,2.1,9.2
			c1.4,2.1,3.4,3.2,6,3.2c3.5,0,6-1.5,7.4-4.4V42.4c-1.4-3-3.8-4.4-7.3-4.4C1046.7,38,1043.9,42.4,1043.9,51.3z"/>
	</g>
	<g class="st0">
		<path d="M741.6,155.3c0-1.4-0.7-2.5-2.1-3.3s-3.6-1.5-6.6-2.1c-10.1-2.1-15.1-6.4-15.1-12.8c0-3.8,1.6-6.9,4.7-9.4
			c3.1-2.5,7.2-3.8,12.2-3.8c5.4,0,9.7,1.3,12.9,3.8c3.2,2.5,4.8,5.8,4.8,9.9h-11.3c0-1.6-0.5-3-1.6-4c-1-1.1-2.7-1.6-4.9-1.6
			c-1.9,0-3.4,0.4-4.4,1.3c-1,0.9-1.6,2-1.6,3.3c0,1.3,0.6,2.3,1.8,3c1.2,0.8,3.2,1.4,6,2c2.8,0.6,5.2,1.2,7.1,1.9
			c6,2.2,8.9,6,8.9,11.4c0,3.9-1.7,7-5,9.4c-3.3,2.4-7.6,3.6-12.8,3.6c-3.5,0-6.7-0.6-9.4-1.9c-2.7-1.3-4.9-3-6.5-5.2
			s-2.3-4.6-2.3-7.1h10.7c0.1,2,0.8,3.5,2.2,4.6c1.4,1.1,3.2,1.6,5.5,1.6c2.2,0,3.8-0.4,4.9-1.2
			C741.1,157.7,741.6,156.6,741.6,155.3z"/>
	</g>
	<g class="st0">
		<path d="M759.7,113.7c0-1.7,0.6-3.1,1.7-4.2s2.7-1.6,4.6-1.6c1.9,0,3.5,0.5,4.6,1.6c1.1,1.1,1.7,2.5,1.7,4.2
			c0,1.7-0.6,3.1-1.7,4.2c-1.2,1.1-2.7,1.6-4.6,1.6c-1.9,0-3.4-0.5-4.6-1.6C760.3,116.8,759.7,115.4,759.7,113.7z M771.7,167h-11.3
			v-42.3h11.3V167z"/>
		<path d="M791.4,124.6l0.4,4.9c3-3.8,7.1-5.7,12.1-5.7c4.5,0,7.8,1.3,10,4c2.2,2.6,3.3,6.6,3.4,11.8V167H806v-27.1
			c0-2.4-0.5-4.2-1.6-5.2c-1-1.1-2.8-1.6-5.2-1.6c-3.2,0-5.6,1.4-7.1,4.1V167h-11.3v-42.3H791.4z"/>
		<path d="M824.2,145.5c0-6.5,1.5-11.7,4.6-15.7s7.2-5.9,12.5-5.9c4.6,0,8.2,1.6,10.8,4.8l0.5-4h10.2v40.9c0,3.7-0.8,6.9-2.5,9.7
			s-4,4.8-7.1,6.3s-6.6,2.2-10.7,2.2c-3.1,0-6.1-0.6-9.1-1.9c-2.9-1.2-5.2-2.8-6.7-4.8l5-6.9c2.8,3.2,6.2,4.7,10.2,4.7
			c3,0,5.3-0.8,7-2.4c1.7-1.6,2.5-3.9,2.5-6.8v-2.3c-2.6,2.9-6,4.4-10.3,4.4c-5.1,0-9.2-2-12.3-6c-3.1-4-4.7-9.3-4.7-15.8V145.5z
			 M835.5,146.3c0,3.9,0.8,6.9,2.3,9.1c1.5,2.2,3.6,3.3,6.3,3.3c3.4,0,5.9-1.3,7.4-3.9v-17.9c-1.5-2.6-3.9-3.9-7.3-3.9
			c-2.7,0-4.8,1.1-6.4,3.3C836.3,138.6,835.5,141.9,835.5,146.3z"/>
	</g>
	<g class="st0">
		<path d="M896.3,167c-0.5-1-0.9-2.3-1.1-3.8c-2.7,3.1-6.3,4.6-10.7,4.6c-4.1,0-7.6-1.2-10.3-3.6c-2.7-2.4-4.1-5.4-4.1-9.1
			c0-4.5,1.7-7.9,5-10.3s8.1-3.6,14.4-3.6h5.2v-2.4c0-2-0.5-3.5-1.5-4.7c-1-1.2-2.6-1.8-4.7-1.8c-1.9,0-3.4,0.5-4.5,1.4
			c-1.1,0.9-1.6,2.2-1.6,3.8h-11.3c0-2.5,0.8-4.7,2.3-6.8c1.5-2.1,3.6-3.7,6.4-4.9c2.8-1.2,5.9-1.8,9.3-1.8c5.2,0,9.3,1.3,12.4,3.9
			c3.1,2.6,4.6,6.3,4.6,11.1v18.4c0,4,0.6,7.1,1.7,9.1v0.7H896.3z M887,159.1c1.7,0,3.2-0.4,4.6-1.1c1.4-0.7,2.4-1.7,3.1-3v-7.3
			h-4.2c-5.7,0-8.7,2-9,5.9l0,0.7c0,1.4,0.5,2.6,1.5,3.5C883.9,158.7,885.3,159.1,887,159.1z"/>
	</g>
	<g class="st0">
		<path d="M952.7,146.2c0,6.5-1.5,11.7-4.4,15.7c-3,3.9-6.9,5.9-12,5.9c-4.3,0-7.7-1.5-10.4-4.5v20h-11.3v-58.6h10.5l0.4,4.1
			c2.7-3.3,6.3-4.9,10.7-4.9c5.2,0,9.3,1.9,12.1,5.8s4.3,9.2,4.3,16V146.2z M941.4,145.3c0-4-0.7-7-2.1-9.1
			c-1.4-2.1-3.4-3.2-6.1-3.2c-3.5,0-6,1.4-7.3,4.1v17.4c1.4,2.8,3.8,4.2,7.4,4.2C938.7,158.7,941.4,154.2,941.4,145.3z"/>
		<path d="M957.9,145.4c0-4.2,0.8-7.9,2.4-11.2c1.6-3.3,3.9-5.8,7-7.6c3-1.8,6.6-2.7,10.6-2.7c5.7,0,10.4,1.7,14,5.2
			c3.6,3.5,5.6,8.2,6,14.2l0.1,2.9c0,6.5-1.8,11.7-5.4,15.6c-3.6,3.9-8.5,5.9-14.6,5.9s-11-2-14.6-5.9c-3.6-3.9-5.4-9.2-5.4-16
			V145.4z M969.2,146.2c0,4,0.8,7.1,2.3,9.2c1.5,2.1,3.7,3.2,6.5,3.2c2.7,0,4.9-1.1,6.4-3.2c1.5-2.1,2.3-5.5,2.3-10.1
			c0-3.9-0.8-7-2.3-9.2c-1.5-2.2-3.7-3.3-6.5-3.3c-2.8,0-4.9,1.1-6.4,3.2C970,138.4,969.2,141.7,969.2,146.2z"/>
	</g>
	<g class="st0">
		<path d="M1028.9,135.3c-1.5-0.2-2.9-0.3-4.1-0.3c-4.3,0-7.1,1.4-8.4,4.3V167h-11.3v-42.3h10.7l0.3,5c2.3-3.9,5.4-5.8,9.4-5.8
			c1.2,0,2.4,0.2,3.5,0.5L1028.9,135.3z"/>
		<path d="M1053,167.8c-6.2,0-11.2-1.9-15.1-5.7c-3.9-3.8-5.8-8.9-5.8-15.2v-1.1c0-4.3,0.8-8.1,2.5-11.4s4-5.9,7-7.7
			s6.4-2.7,10.3-2.7c5.8,0,10.3,1.8,13.7,5.5c3.3,3.7,5,8.8,5,15.5v4.6h-26.9c0.4,2.8,1.5,5,3.3,6.7s4.2,2.5,7,2.5
			c4.3,0,7.7-1.6,10.2-4.7l5.5,6.2c-1.7,2.4-4,4.3-6.9,5.6C1059.7,167.1,1056.5,167.8,1053,167.8z M1051.7,133
			c-2.2,0-4.1,0.8-5.4,2.3c-1.4,1.5-2.3,3.7-2.7,6.5h15.7v-0.9c-0.1-2.5-0.7-4.5-2-5.8C1056,133.7,1054.1,133,1051.7,133z"/>
	</g>
</g>
</svg>
